<?xml version="1.0" encoding="UTF-8"?>
<svg xmlns="http://www.w3.org/2000/svg" viewBox="-640 -280 460 160" width="440" height="140">
  <ellipse cx="220" cy="610" rx="220" ry="16" fill="rgba(8,24,36,0.824)"/>
  <rect x="20" y="584" width="14" height="44" rx="3" fill="#4a2e18"/>
  <rect x="88" y="584" width="14" height="44" rx="3" fill="#4a2e18"/>
  <rect x="156" y="584" width="14" height="44" rx="3" fill="#4a2e18"/>
  <rect x="224" y="584" width="14" height="44" rx="3" fill="#4a2e18"/>
  <rect x="292" y="584" width="14" height="44" rx="3" fill="#4a2e18"/>
  <rect x="360" y="584" width="14" height="44" rx="3" fill="#4a2e18"/>
  <rect x="0" y="482" width="460" height="108" rx="14" fill="#c47e3a"/>
  <rect x="0" y="572" width="460" height="18" rx="10" fill="#ecb868"/>
  <rect x="12" y="492" width="6" height="82" rx="0" fill="#784824"/>
  <rect x="66" y="492" width="6" height="82" rx="0" fill="#784824"/>
  <rect x="120" y="492" width="6" height="82" rx="0" fill="#784824"/>
  <rect x="174" y="492" width="6" height="82" rx="0" fill="#784824"/>
  <rect x="228" y="492" width="6" height="82" rx="0" fill="#784824"/>
  <rect x="282" y="492" width="6" height="82" rx="0" fill="#784824"/>
  <rect x="336" y="492" width="6" height="82" rx="0" fill="#784824"/>
  <rect x="390" y="492" width="6" height="82" rx="0" fill="#784824"/>
  <line x1="10" y1="532" x2="440" y2="532" stroke="rgba(92,56,28,0.784)" stroke-width="3" fill="none"/>
  <line x1="10" y1="556" x2="440" y2="556" stroke="rgba(92,56,28,0.353)" stroke-width="1.6" fill="none"/>
  <rect x="80" y="478" width="88" height="68" rx="12" fill="#1ca8b0"/>
  <rect x="90" y="518" width="68" height="18" rx="4" fill="#105662"/>
  <rect x="98" y="524" width="20" height="8" rx="3" fill="rgba(255,226,140,0.667)"/>
  <circle cx="392" cy="508" r="7" fill="#ffa838"/>
  <circle cx="392" cy="508" r="3" fill="#ffe28c"/>
  <circle cx="392" cy="508" r="16" fill="rgba(255,214,118,0.196)"/>
  <ellipse cx="240" cy="608" rx="80" ry="7" fill="rgba(255,248,230,0.125)"/>
  <circle cx="440" cy="516" r="5" fill="#ffa838"/>
  <circle cx="440" cy="516" r="11" fill="rgba(255,214,118,0.157)"/>
  <circle cx="320" cy="504" r="6" fill="#ffa838"/>
  <circle cx="320" cy="504" r="14" fill="rgba(255,214,118,0.180)"/>
  <ellipse cx="392" cy="588" rx="20" ry="5" fill="rgba(255,214,118,0.118)"/>
  <ellipse cx="320" cy="586" rx="16" ry="4" fill="rgba(255,214,118,0.094)"/>
  <ellipse cx="220" cy="596" rx="200" ry="12" fill="rgba(6,16,28,0.392)"/>
  <circle cx="301.728887190402" cy="578.8456290388567" r="1.4418984507462302" fill="rgba(120,72,36,0.216)"/>
  <circle cx="439.4069754831618" cy="545.0586450318369" r="1.7142616254123417" fill="rgba(120,72,36,0.216)"/>
  <circle cx="229.46967913325352" cy="509.5843071754694" r="1.2989508869810016" fill="rgba(120,72,36,0.216)"/>
  <circle cx="179.75109516628436" cy="505.8649946403457" r="1.2005945578289539" fill="rgba(120,72,36,0.216)"/>
  <circle cx="217.29940948978765" cy="560.0274896539049" r="1.2748749187732755" fill="rgba(120,72,36,0.216)"/>
  <circle cx="108.99389221784077" cy="575.1826150753168" r="1.0606183519961634" fill="rgba(120,72,36,0.216)"/>
  <circle cx="52.10088821986574" cy="579.6332315534091" r="0.9480691484349518" fill="rgba(120,72,36,0.216)"/>
  <circle cx="200.56818619545083" cy="554.1331459568028" r="1.2417761944301309" fill="rgba(120,72,36,0.216)"/>
  <circle cx="45.74845695486147" cy="538.2494351625028" r="0.9355023822367912" fill="rgba(120,72,36,0.216)"/>
  <circle cx="74.6114886714713" cy="497.9545002909581" r="0.9926009884587802" fill="rgba(120,72,36,0.216)"/>
  <circle cx="29.900847610406345" cy="582.3485337134189" r="0.9041516767944996" fill="rgba(120,72,36,0.216)"/>
  <circle cx="98.08759445601027" cy="548.531613777137" r="1.0390428499021074" fill="rgba(120,72,36,0.216)"/>
  <circle cx="95.06885956798214" cy="521.591116237134" r="1.03307100479753" fill="rgba(120,72,36,0.216)"/>
  <circle cx="294.49127266037976" cy="575.7472577821027" r="1.4275805611324903" fill="rgba(120,72,36,0.216)"/>
  <circle cx="450.99986824840016" cy="504.6666794125267" r="1.7371953915348788" fill="rgba(120,72,36,0.216)"/>
  <circle cx="97.12756939174142" cy="506.93444604489196" r="1.0371436698836622" fill="rgba(120,72,36,0.216)"/>
  <circle cx="190.1704588562916" cy="526.2053298250103" r="1.2212067773026638" fill="rgba(120,72,36,0.216)"/>
  <circle cx="329.5330505867605" cy="515.3431577832962" r="1.4969023392042435" fill="rgba(120,72,36,0.216)"/>
  <circle cx="63.73358284778078" cy="545.0426492447768" r="0.9710816530249576" fill="rgba(120,72,36,0.216)"/>
  <circle cx="10.183511019567959" cy="583.6687287295354" r="0.8651456413647975" fill="rgba(120,72,36,0.216)"/>
  <circle cx="303.91891152379685" cy="487.8638326004002" r="1.4462308901883807" fill="rgba(120,72,36,0.216)"/>
  <circle cx="378.2054207393958" cy="509.40538486572586" r="1.593188984506196" fill="rgba(120,72,36,0.216)"/>
  <circle cx="287.11457877732755" cy="526.2033643640607" r="1.4129875362768871" fill="rgba(120,72,36,0.216)"/>
  <circle cx="305.2189945920145" cy="569.5177447222377" r="1.44880279364942" fill="rgba(120,72,36,0.216)"/>
  <circle cx="55.02473972097505" cy="567.0230716684399" r="0.9538532894480158" fill="rgba(120,72,36,0.216)"/>
  <circle cx="161.09864801990625" cy="546.6246515525563" r="1.1636951515176406" fill="rgba(120,72,36,0.216)"/>
  <circle cx="63.509330413944554" cy="495.3925417214632" r="0.9706380232101948" fill="rgba(120,72,36,0.216)"/>
  <circle cx="184.072392523085" cy="495.56355281311335" r="1.2091432112956682" fill="rgba(120,72,36,0.216)"/>
  <rect x="30" y="500" width="22" height="8" rx="2" fill="#ffc658"/>
  <ellipse cx="60" cy="608" rx="18" ry="5" fill="rgba(255,248,230,0.157)"/>
</svg>
